<?xml version="1.0" encoding="UTF-8" standalone="no"?>
<svg
   xmlns:osb="http://www.openswatchbook.org/uri/2009/osb"
   xmlns:dc="http://purl.org/dc/elements/1.1/"
   xmlns:cc="http://creativecommons.org/ns#"
   xmlns:rdf="http://www.w3.org/1999/02/22-rdf-syntax-ns#"
   xmlns:svg="http://www.w3.org/2000/svg"
   xmlns="http://www.w3.org/2000/svg"
   xmlns:xlink="http://www.w3.org/1999/xlink"
   id="svg8"
   version="1.1"
   viewBox="0 0 762 246.75801"
   height="246.75801mm"
   width="762mm">
  <defs
     id="defs2">
    <linearGradient
       id="linearGradient4615">
      <stop
         id="stop4611"
         offset="0"
         style="stop-color:#2137db;stop-opacity:1" />
      <stop
         id="stop4613"
         offset="1"
         style="stop-color:#517ce0;stop-opacity:1" />
    </linearGradient>
    <linearGradient
       osb:paint="solid"
       id="linearGradient4603">
      <stop
         id="stop4601"
         offset="0"
         style="stop-color:#333333;stop-opacity:1;" />
    </linearGradient>
    <linearGradient
       gradientUnits="userSpaceOnUse"
       y2="-169.7101"
       x2="-171.20833"
       y1="48.957092"
       x1="590.7619"
       id="linearGradient4617"
       xlink:href="#linearGradient4615" />
  </defs>
  <metadata
     id="metadata5">
    <rdf:RDF>
      <cc:Work
         rdf:about="">
        <dc:format>image/svg+xml</dc:format>
        <dc:type
           rdf:resource="http://purl.org/dc/dcmitype/StillImage" />
        <dc:title></dc:title>
      </cc:Work>
    </rdf:RDF>
  </metadata>
  <g
     transform="translate(171.22322,169.7101)"
     id="layer1">
    <path
       id="path4627"
       transform="matrix(0.26458333,0,0,0.26458333,-171.22322,-169.72499)"
       d="m 0,796.24609 v 85.50586 c 11.381736,3.75588 33.153599,9.98925 67.148438,15.96875 53.470182,9.40512 139.299392,19.13681 270.996092,21.25196 84.61839,1.35903 224.80363,-16.08836 370.79883,-32.8418 145.9952,-16.75344 297.33264,-32.83641 396.08984,-29.83789 263.9599,8.01449 433.3134,75.32324 884.9043,76.38086 449.7291,1.05326 843.8316,-72.91053 890.0625,-81.90235 v -54.52539 h -0.057 v 30.26953 c 0,0 -413.9497,83.45657 -889.9454,82.3418 -449.2302,-1.05208 -616.5995,-68.24099 -884.2382,-76.36719 C 901.74474,826.29582 500.11257,897.75729 338.52734,895.16211 77.150286,890.9642 0.05664062,856.51563 0.05664062,856.51562 v -60.26953 z"
       style="color:#000000;font-style:normal;font-variant:normal;font-weight:normal;font-stretch:normal;font-size:medium;line-height:normal;font-family:sans-serif;font-variant-ligatures:normal;font-variant-position:normal;font-variant-caps:normal;font-variant-numeric:normal;font-variant-alternates:normal;font-feature-settings:normal;text-indent:0;text-align:start;text-decoration:none;text-decoration-line:none;text-decoration-style:solid;text-decoration-color:#000000;letter-spacing:normal;word-spacing:normal;text-transform:none;writing-mode:lr-tb;direction:ltr;text-orientation:mixed;dominant-baseline:auto;baseline-shift:baseline;text-anchor:start;white-space:normal;shape-padding:0;clip-rule:nonzero;display:inline;overflow:visible;visibility:visible;opacity:1;isolation:auto;mix-blend-mode:normal;color-interpolation:sRGB;color-interpolation-filters:linearRGB;solid-color:#000000;solid-opacity:1;vector-effect:none;fill:#f5edf8;fill-opacity:1;fill-rule:nonzero;stroke:none;stroke-width:47.62582779;stroke-linecap:butt;stroke-linejoin:miter;stroke-miterlimit:4;stroke-dasharray:none;stroke-dashoffset:0;stroke-opacity:1;color-rendering:auto;image-rendering:auto;shape-rendering:auto;text-rendering:auto;enable-background:accumulate" />
    <path
       id="rect3793"
       d="M -171.20833,-169.7101 H 590.76189 V 48.957092 c 0,0 -109.52444,22.081334 -235.46495,21.786384 C 236.43805,70.465112 192.15493,52.688293 121.34218,50.538237 67.363221,48.899298 -38.901866,67.806511 -81.654623,67.119869 -150.81064,66.009171 -171.20833,56.894592 -171.20833,56.894592 Z"
       style="display:inline;fill:url(#linearGradient4617);fill-opacity:1;stroke:none;stroke-width:12.60099983;stroke-miterlimit:4;stroke-dasharray:none;stroke-opacity:1" />
  </g>
</svg>
