<?xml version="1.0" encoding="UTF-8" standalone="no"?>
<svg
   xmlns:dc="http://purl.org/dc/elements/1.1/"
   xmlns:cc="http://creativecommons.org/ns#"
   xmlns:rdf="http://www.w3.org/1999/02/22-rdf-syntax-ns#"
   xmlns:svg="http://www.w3.org/2000/svg"
   xmlns="http://www.w3.org/2000/svg"
   height="507.55563"
   width="511.99911"
   xml:space="preserve"
   viewBox="0 0 511.99912 507.55564"
   y="0px"
   x="0px"
   id="Layer_1"
   version="1.1"><metadata
     id="metadata73"><rdf:RDF><cc:Work
         rdf:about=""><dc:format>image/svg+xml</dc:format><dc:type
           rdf:resource="http://purl.org/dc/dcmitype/StillImage" /><dc:title></dc:title></cc:Work></rdf:RDF></metadata><defs
     id="defs71" /><path
     style="fill:#dadada;fill-opacity:1"
     d="m 300.20978,284.81264 c -3.088,-3.087 -8.093,-3.087 -11.181,0 l -23.19,23.19 c -3.087,3.087 -3.087,8.093 0,11.18 1.544,1.543 3.568,2.316 5.591,2.316 2.023,0 4.047,-0.772 5.591,-2.316 l 23.189,-23.19 c 3.088,-3.088 3.088,-8.094 0,-11.18 z m 8.433,33.731 c -3.088,-3.087 -8.093,-3.087 -11.182,0 l -21.082,21.082 c -3.087,3.087 -3.087,8.093 0,11.18 1.544,1.543 3.568,2.316 5.591,2.316 2.023,0 4.047,-0.772 5.591,-2.316 l 21.082,-21.082 c 3.088,-3.088 3.088,-8.094 0,-11.18 z m -22.456,-65.561 c -36.908,0 -66.935,30.027 -66.935,66.935 0,36.908 30.027,66.935 66.935,66.935 36.908,0 66.935,-30.027 66.935,-66.935 0,-36.909 -30.027,-66.935 -66.935,-66.935 z m 0,118.058 c -28.19,0 -51.123,-22.934 -51.123,-51.123 0,-28.19 22.934,-51.123 51.123,-51.123 28.19,0 51.123,22.934 51.123,51.123 0,28.189 -22.934,51.123 -51.123,51.123 z m 222.55,-240.71 -177.415,-128.8219997 c -1.696,-1.23099997 -3.81,-1.74099997 -5.884,-1.40999997 -2.07,0.329 -3.926,1.46599997 -5.159,3.16199997 l -77.371,106.5579997 -10.653,-67.129 c -0.328,-2.071 -1.466,-3.926 -3.163,-5.159 -1.697,-1.233 -3.815,-1.738 -5.884,-1.41 L 6.6677791,70.48364 c -4.312,0.684 -7.25299997,4.735 -6.56899997,9.046 l 42.29099987,266.513 c 0.329,2.071 1.466,3.926 3.162,5.159 1.359,0.987 2.986,1.508 4.645,1.508 0.412,0 0.826,-0.033 1.239,-0.098 l 49.757001,-7.896 v 84.826 c 0,4.366 3.54,7.906 7.906,7.906 h 219.251 c 4.367,0 7.906,-3.54 7.906,-7.906 v -22.293 c 5.424,-3.115 10.547,-6.711 15.304,-10.779 l 19.699,19.7 -6.335,6.335 c -3.087,3.087 -3.087,8.093 0,11.181 l 71.554,71.554 c 1.544,1.544 3.567,2.316 5.591,2.316 2.023,0 4.047,-0.772 5.591,-2.316 l 23.852,-23.852 c 1.482,-1.482 2.315,-3.493 2.315,-5.59 0,-2.097 -0.833,-4.108 -2.315,-5.59 l -71.555,-71.554 c -1.483,-1.483 -3.494,-2.316 -5.591,-2.316 -2.097,0 -4.107,0.833 -5.591,2.316 l -6.335,6.335 -19.699,-19.699 c 15.601,-18.212 24.111,-41.137 24.111,-65.374 0,-2.593 -0.108,-5.219 -0.311,-7.84 l 123.949,-170.704 c 2.566,-3.533 1.781,-8.477 -1.753,-11.041 z m -114.372,285.095 60.374,60.374 -12.671,12.671 -60.373,-60.374 z m -293.171,-255.732 v 32.401 l -23.409001,3.715 c -4.312,0.684 -7.253,4.735 -6.569,9.047 0.618,3.893 3.978,6.668 7.798,6.668 0.412,0 0.83,-0.032 1.249,-0.099 l 20.931001,-3.321 v 52.297 l -12.837001,2.036 c -4.312,0.684 -7.253,4.735 -6.569,9.047 0.618,3.893 3.978,6.668 7.798,6.668 0.412,0 0.83,-0.032 1.249,-0.099 l 10.359001,-1.643 v 52.297 l -44.428001,7.05 -39.812,-250.897 200.926001,-31.884 11.891,74.935 -17.337,23.876 h -103.335 c -4.366,10e-4 -7.905,3.54 -7.905,7.906 z m 219.251,261.943 h -203.44 v -86.179 -68.306 -68.305 -31.245 h 99.445 c 0.002,0 0.004,0.001 0.006,0.001 0.003,0 0.006,-0.001 0.008,-0.001 h 26.352 63.256 c 0.002,0 0.004,0.001 0.006,0.001 0.003,0 0.006,-0.001 0.01,-0.001 h 14.355 v 8.26 49.379 c -10.927,-3.974 -22.402,-5.988 -34.258,-5.988 -2.209,0 -4.408,0.081 -6.595,0.223 -0.59,-0.14 -1.204,-0.223 -1.837,-0.223 h -118.058 c -4.366,0 -7.906,3.54 -7.906,7.906 0,4.366 3.54,7.906 7.906,7.906 h 72.318 c -8.542,5.461 -16.309,12.243 -22.991,20.213 -7.884,9.4 -13.876,19.955 -17.874,31.437 h -31.452 c -4.366,0 -7.906,3.54 -7.906,7.906 0,4.366 3.54,7.906 7.906,7.906 h 27.336 c -1.003,5.733 -1.51,11.552 -1.51,17.393 0,11.865 2.011,23.34 5.978,34.258 h -31.803 c -4.366,0 -7.906,3.54 -7.906,7.906 0,4.366 3.54,7.906 7.906,7.906 h 39.156 c 17.95,31.328 50.971,50.596 87.335,50.596 11.864,0 23.339,-2.011 34.258,-5.978 v 7.029 z m 25.743,-41.719 c -10e-4,10e-4 -0.002,0.002 -0.003,0.003 -6.308,6.308 -13.52,11.556 -21.433,15.601 -12.005,6.137 -24.98,9.249 -38.565,9.249 -32.039,0 -61.01,-17.737 -75.606,-46.289 -0.001,-0.002 -0.002,-0.004 -0.003,-0.006 -6.135,-12.003 -9.245,-24.976 -9.245,-38.559 0,-7.835 1.079,-15.623 3.209,-23.145 3.273,-11.563 8.858,-22.107 16.598,-31.337 16.185,-19.302 39.894,-30.372 65.048,-30.372 13.569,0 26.545,3.116 38.564,9.263 25.594,13.089 42.713,37.895 45.788,66.358 10e-4,0.005 0.002,0.011 0.002,0.017 0.331,3.074 0.5,6.174 0.5,9.216 -0.001,22.667 -8.827,43.974 -24.854,60.001 z m 36.353,-89.244 c -7.362,-24.39 -23.782,-45.177 -46.285,-58.078 v -41.224 l 42.976,31.204 c 1.403,1.018 3.027,1.509 4.638,1.509 2.444,0 4.856,-1.131 6.404,-3.261 2.566,-3.533 1.78,-8.477 -1.753,-11.043 l -52.265,-37.949 v -12.136 c 0,-4.366 -3.539,-7.906 -7.906,-7.906 h -19.696 l -15.664,-11.374 c -3.533,-2.565 -8.478,-1.782 -11.043,1.752 -2.151,2.962 -1.94,6.91 0.263,9.622 h -39.395 -10.843 l 12.514,-17.234 c 0.001,-0.001 0.002,-0.002 0.003,-0.004 l 83.94,-115.603 164.621,119.531 z m -189.684,-173.425 c -0.684,-4.312 -4.735,-7.258 -9.047,-6.569 l -116.598001,18.503 c -4.312,0.684 -7.253,4.735 -6.569,9.047 0.618,3.893 3.978,6.668 7.798,6.668 0.412,0 0.83,-0.032 1.249,-0.099 l 116.599001,-18.503 c 4.313,-0.684 7.254,-4.734 6.568,-9.047 z m 235.3,37.943 -95.53,-69.366 c -3.533,-2.565 -8.476,-1.781 -11.043,1.752 -2.566,3.533 -1.78,8.477 1.753,11.043 l 95.531,69.365 c 1.403,1.018 3.027,1.509 4.638,1.509 2.444,0 4.856,-1.131 6.404,-3.261 2.566,-3.533 1.781,-8.477 -1.753,-11.042 z"
     id="path32" /></svg>