<?xml version="1.0" encoding="UTF-8"?>
<svg xmlns="http://www.w3.org/2000/svg" xmlns:xlink="http://www.w3.org/1999/xlink">
  <symbol id="magnifier" viewBox="0 0 56.966 56.966" xmlns:xlink="http://www.w3.org/1999/xlink">
    <path d="M55.146,51.887L41.588,37.786c3.486-4.144,5.396-9.358,5.396-14.786c0-12.682-10.318-23-23-23s-23,10.318-23,23 s10.318,23,23,23c4.761,0,9.298-1.436,13.177-4.162l13.661,14.208c0.571,0.593,1.339,0.92,2.162,0.92 c0.779,0,1.518-0.297,2.079-0.837C56.255,54.982,56.293,53.08,55.146,51.887z M23.984,6c9.374,0,17,7.626,17,17s-7.626,17-17,17 s-17-7.626-17-17S14.61,6,23.984,6z"/>
  </symbol>
  <symbol id="expand" viewBox="0 0 306 306">
    <polygon points="270.3,58.65 153,175.95 35.7,58.65 0,94.35 153,247.35 306,94.35"/>
  </symbol>
</svg>
