<?xml version="1.0" encoding="UTF-8"?>
<svg xmlns="http://www.w3.org/2000/svg" xmlns:xlink="http://www.w3.org/1999/xlink">
  <symbol id="logo" viewBox="0 0 552.75409 161.93399" xmlns="http://www.w3.org/2000/svg">
  <path
    d="m 58.947764,25.760304 c -0.549,0 -0.95836,0.04433 -1.21435,0.133297 -1.84901,1.703003 -2.8395,14.592046 -2.9795,28.519051 20.97,4.947998 46.201346,12.07656 49.277346,14.705565 2.156,3.067995 3.14642,20.668391 2.98242,36.858403 12.454,2.93599 23.40687,5.10791 27.31787,5.10791 0.55,0 0.95982,-0.0428 1.21582,-0.13184 3.996,-3.68 4.008,-59.664373 0,-65.380371 -4.904,-4.188 -66.111606,-19.812015 -76.599606,-19.812015 z M 107.01368,105.97662 C 86.038684,101.02561 60.795614,93.894718 57.724624,91.263718 c -2.142,-3.06399 -3.13071,-20.657073 -2.97071,-36.851066 -12.469,-2.939003 -23.42729,-5.110845 -27.32959,-5.110845 -0.5437,0 -0.95127,0.04237 -1.20556,0.130372 -3.99611,3.689003 -3.99553,59.679511 -0.008,65.374521 4.8962,4.189 66.105,19.8198 76.603996,19.8208 0.549,0 0.95982,-0.0428 1.21583,-0.13184 1.846,-1.706 2.84142,-14.59304 2.98242,-28.51904 z M 161.9331,80.968998 C 161.9331,125.684 125.6871,161.934 80.965094,161.934 36.250104,161.934 0,125.684 0,80.968998 0,36.253996 36.250104,0 80.965094,0 125.6871,0 161.9331,36.253996 161.9331,80.968998 M 520.1351,126.028 c -9.44,0 -16.494,-1.078 -22.588,-2.631 -1.196,-0.357 -2.391,-1.078 -2.391,-2.391 v -11.713 c 0,-1.669 0.955,-2.267 2.151,-2.267 0.117,0 0.24,0 0.363,0 4.892,0.478 18.041,1.431 22.699,1.431 8.25,0 10.635,-2.628 10.635,-8.363 0,-3.469002 -1.676,-5.379002 -7.881,-9.082002 l -16.494,-9.799 c -11.115,-6.574 -14.098,-14.101 -14.098,-22.826 0,-13.146 7.401,-23.305 30.592,-23.305 8.719,0 20.789,1.436 25.33,2.629 0.949,0.239 1.793,0.836 1.793,2.153 v 12.07 c 0,1.076 -0.48,2.031 -2.033,2.031 0,0 -0.123,0 -0.235,0 -3.345,-0.238 -17.214,-1.316 -25.336,-1.316 -6.814,0 -9.322,2.033 -9.322,6.332 0,3.348 1.553,4.902 8.004,8.367 l 15.293,8.246 c 12.434,6.694 16.137,14.58 16.137,24.26 0,12.668002 -8.362,26.174002 -32.619,26.174002 M 486.4371,38.667998 468.6311,112.756 c -2.748,11.479 -11.473,13.272 -19.723,13.272 -8.244,0 -17.086,-1.793 -19.84,-13.272 l -17.806,-74.088002 c 0,-0.24 -0.118,-0.359 -0.118,-0.599 0,-1.074 0.956,-1.91 2.151,-1.91 h 16.617 c 1.189,0 2.145,0.955 2.385,2.15 l 14.935,68.957002 c 0.246,1.313 0.598,1.787 1.676,1.787 1.078,0 1.436,-0.474 1.676,-1.787 l 14.941,-68.957002 c 0.235,-1.195 1.073,-2.15 2.268,-2.15 h 16.728 c 1.196,0 2.034,0.715 2.034,1.91 0,0.123 -0.118,0.359 -0.118,0.599 m -84.017,14.342 h -19.36 V 122.559 c 0,1.318 -1.072,2.391 -2.39,2.391 h -15.656 c -1.313,0 -2.385,-1.073 -2.385,-2.391 V 53.009998 h -19.483 c -1.312,0 -2.396,-0.955 -2.396,-2.273 v -12.309 c 0,-1.314 1.084,-2.269 2.396,-2.269 h 59.274 c 1.312,0 2.508,0.955 2.508,2.269 v 12.309 c 0,1.318 -1.196,2.273 -2.508,2.273 m -86.76,20.434 c 0,-14.34 -4.775,-20.434 -14.818,-20.434 -10.032,0 -14.696,6.094 -14.696,20.434 v 14.222 c 0,14.338002 4.664,20.432002 14.696,20.432002 10.043,0 14.818,-6.094 14.818,-20.432002 z M 300.8421,126.028 c -19.717,0 -35.373,-10.635 -35.373,-38.362002 v -14.222 c 0,-27.729 15.656,-38.362 35.373,-38.362 19.722,0 35.373,10.633 35.373,38.362 v 14.222 c 0,27.727002 -15.651,38.362002 -35.373,38.362002 m -42.657,-73.018002 h -19.359 V 122.559 c 0,1.318 -1.078,2.391 -2.391,2.391 h -15.656 c -1.312,0 -2.388,-1.073 -2.388,-2.391 V 53.009998 h -19.479 c -1.318,0 -2.391,-0.955 -2.391,-2.273 v -12.309 c 0,-1.314 1.073,-2.269 2.391,-2.269 h 59.273 c 1.315,0 2.51,0.955 2.51,2.269 v 12.309 c 0,1.318 -1.195,2.273 -2.51,2.273" />
  </symbol>
 </svg>
